<svg id="Capa_1" enable-background="new 0 0 512 512" height="512" viewBox="0 0 512 512" width="512"
    xmlns="http://www.w3.org/2000/svg">
    <g>
        <path
            d="m166.658 70.082v148.569l114.933-74.285zm30.009 55.126 29.642 19.158-29.642 19.158z" />
        <path
            d="m500.81 252.487c-4.694-5.293-10.534-9.325-16.981-11.863-4.412-23.292-21.318-42.377-43.88-49.541-2.78-14.822-10.637-27.872-21.683-37.286v-153.797h-418.266v353.202h153.702c-7.797 20.576-27.785 34.389-49.8 34.389h-1.03v30.008h156.772l14.76 94.401h197.396l39.757-223.878.124-.828c1.52-12.614-2.442-25.3-10.871-34.807zm-76.489-34.202c13.074 1.511 23.742 10.184 28.282 21.837-5.395 1.933-10.308 4.882-14.514 8.614-7.844-6.94-18.143-11.166-29.415-11.166-12.858 0-24.547 5.07-33.2 13.303-8.652-8.233-20.341-13.303-33.2-13.303-11.271 0-21.569 4.225-29.412 11.169-3.797-3.37-8.173-6.097-12.958-8.018 4.405-11.952 15.206-20.899 28.502-22.435l13.396-1.548-.115-13.485c-.001-.131-.003-.261-.008-.397.099-19.041 15.62-34.503 34.684-34.503s34.585 15.46 34.684 34.502c-.004.132-.007.264-.008.398l-.115 13.485zm-80.141 43.942c8.996 0 16.289 7.293 16.289 16.289l.006 203.476h-32.018l-.567-203.43c-.024-9.015 7.276-16.335 16.29-16.335zm44.078-232.219v109.439c-3.857-.72-7.831-1.102-11.894-1.102-31.589 0-57.963 22.757-63.585 52.739-22.338 7.092-39.138 25.869-43.752 48.846-7.2 2.462-13.734 6.748-18.885 12.557-.536.604-1.053 1.222-1.552 1.851h-218.582v-224.33zm-358.25 254.339h209.016c.052.982 5.857 38.846 5.857 38.846h-214.873zm137.826 103.244c5.906-7.052 10.699-15.132 14.032-24.019l3.889-10.37h63.819l5.377 34.389zm101.203-104.107c-.432-4.08 1.549-15.947 14.36-15.947 7.933 0 14.388 6.431 14.435 14.353 0 .058-.004.116-.004.174l.588 189.267zm151.597 198.508h-30.15l-.003-203.545c0-8.958 7.262-16.22 16.22-16.22 9.029 0 16.321 7.374 16.219 16.402zm61.292-198.634-30.983 174.465 2.17-175.661.001-.144h.01c0-.052-.004-.104-.004-.156.063-7.909 6.51-14.324 14.434-14.324 13.059-.001 14.764 11.785 14.372 15.82z" />
    </g>
</svg>